# xmcd CD database file
#
# Track frame offsets:
#	150
#	27163
#	64695
#	89129
#	110164
#	133770
#	170208
#	188655
#	222362
#
# Disc length: 3415 seconds
#
# Revision: 0
# Processed by: cddbd v1.5.2PL0 Copyright (c) Steve Scherf et al.
# Submitted via: CDex 1.51
#
DISCID=8a0d5509
DTITLE=Joe Jackson and the Bigger Band - A l'Olympia 2012 [2|2]
DYEAR=2012
DGENRE=Jazz
TTITLE0=Joe Jackson and the Bigger Band - Perdido
TTITLE1=Joe Jackson and the Bigger Band - The Mooche/Black And Tan Fantasy
TTITLE2=Joe Jackson and the Bigger Band - Another World
TTITLE3=Joe Jackson and the Bigger Band - Target
TTITLE4=Joe Jackson and the Bigger Band - Steppin' Out
TTITLE5=Joe Jackson and the Bigger Band - It Don't Mean A Thing (If It Ain't Got That Swing)
TTITLE6=Joe Jackson and the Bigger Band - Is She Really Going Out With Him
TTITLE7=Joe Jackson and the Bigger Band - Sunday Papers
TTITLE8=Joe Jackson and the Bigger Band - A Slow Song
EXTD=YEAR: 2012
EXTT0=
EXTT1=
EXTT2=
EXTT3=
EXTT4=
EXTT5=
EXTT6=
EXTT7=
EXTT8=
PLAYORDER=
